<?xml version="1.0" encoding="UTF-8"?>
<svg id="Layer_1" data-name="Layer 1" xmlns="http://www.w3.org/2000/svg" viewBox="0 0 297.66 79.18">
  <defs>
    <style>
      .cls-1 {
        fill: #f85a1b;
      }

      .cls-2 {
        fill: #338ba8;
      }

      .cls-3 {
        fill: #08415c;
      }

      .cls-4 {
        fill: #d83b43;
      }
    </style>
  </defs>
  <g>
    <path class="cls-3" d="M140.57,17.17c-1.68-3.59-3.98-5.44-7.69-5.44-4.04,0-7.8,3.37-7.8,8.03,0,4.1,3.37,7.74,7.86,7.74,4.1,0,7.18-2.41,7.97-7.46l11.67.34c-.95,7.63-3.7,12.57-9.32,15.99-3.59,2.19-6.17,2.92-10.33,2.92-10.55,0-19.59-8.53-19.59-19.87,0-10.55,8.98-19.42,19.59-19.42,5.84,0,11.45,2.58,15.15,7.02,2.81,3.37,3.7,6.45,4.38,9.37l-11.9.79Z"/>
    <path class="cls-3" d="M175.31,25.7c0-2.97-1.85-4.38-3.82-4.38-2.3,0-3.93,1.85-3.93,3.76,0,2.19,1.74,3.93,3.7,3.93,1.35,0,1.91-.34,2.75-.95v10.61c-1.07.17-1.91.22-2.69.22-6.96,0-14.03-5.84-14.03-14.65,0-7.24,6.12-13.81,14.2-13.81s14.31,6.62,14.31,14.14v13.75h-10.49v-12.63Z"/>
    <path class="cls-3" d="M215.89,38.33h-10.1v-15.43c0-1.4-.79-2.36-2.08-2.36-1.18,0-2.02,1.07-2.02,2.36v15.43h-10.1v-15.27c0-7.24,5.44-12.63,11.84-12.63,6.79,0,12.46,5.05,12.46,13.47v14.42Z"/>
    <path class="cls-3" d="M231.27.56v10.44h4.55v10.83h-4.6c0,1.63-.06,2.86.95,4.15,1.01,1.29,2.3,1.57,3.87,1.57v10.78c-.28,0-.5.06-.79.06-7.52,0-14.25-5.89-14.25-14.65V.56h10.27Z"/>
    <path class="cls-3" d="M240.13,24.52c0-18.74,28.29-18.74,28.29.11s-28.29,19.02-28.29-.11ZM250.57,24.47c0,5.16,7.58,5.28,7.58.22s-7.58-5.05-7.58-.22Z"/>
    <path class="cls-3" d="M297.66,38.33h-10.1v-15.43c0-1.4-.79-2.36-2.08-2.36-1.18,0-2.02,1.07-2.02,2.36v15.43h-10.1v-15.27c0-7.24,5.44-12.63,11.84-12.63,6.79,0,12.46,5.05,12.46,13.47v14.42Z"/>
    <path class="cls-1" d="M140.18,78.6h-11.06v-24.69c0-1.35-.56-2.13-1.52-2.13-1.01,0-1.68.73-1.68,2.13v24.69h-11.06v-28.06c0-5.61,5.05-10.27,10.5-10.27,4.04,0,7.13,1.74,9.2,5.27,1.85-3.25,5.61-5.27,9.04-5.27,3.76,0,7.07,1.74,9.09,4.88,1.79,2.75,1.79,4.94,1.79,7.07v26.38h-11.06v-24.69c0-1.35-.56-2.13-1.52-2.13s-1.74.73-1.74,2.3v24.53Z"/>
    <path class="cls-4" d="M177.9,65.97c0-2.97-1.85-4.38-3.82-4.38-2.3,0-3.93,1.85-3.93,3.76,0,2.19,1.74,3.93,3.7,3.93,1.35,0,1.91-.34,2.75-.96v10.61c-1.07.17-1.91.22-2.69.22-6.96,0-14.03-5.84-14.03-14.65,0-7.24,6.12-13.8,14.2-13.8s14.31,6.62,14.31,14.14v13.75h-10.49v-12.63Z"/>
    <path class="cls-2" d="M217.85,78.6h-10.1v-14.14c0-1.74-.34-2.92-1.85-2.92-1.18,0-1.68,1.12-1.68,2.92v14.14h-10.1v-17.17c0-5.89,4.83-10.78,10.5-10.78,3.7,0,5.84,1.4,8.31,3.93,2.36-2.36,4.77-3.93,7.91-3.93,5.78,0,10.83,4.15,10.83,12.29v15.66h-10.27v-14.14c0-1.74-.28-2.92-1.8-2.92-1.18,0-1.74,1.12-1.74,2.92v14.14Z"/>
    <path class="cls-3" d="M247.54,64.57c0,3.14,1.91,4.49,3.7,4.49,2.13,0,3.93-1.68,3.93-3.87s-1.85-3.87-3.93-3.87c-.9,0-1.68.5-2.25.84v-11.22c.67-.11,1.57-.22,2.47-.22,7.75,0,14.25,6.23,14.25,14.03s-6.12,14.42-14.37,14.42c-6.62,0-13.92-5.5-13.92-14.59v-23.4h10.1v23.4Z"/>
    <path class="cls-4" d="M269.32,64.79c0-18.74,28.29-18.74,28.29.11s-28.29,19.03-28.29-.11ZM279.76,64.74c0,5.16,7.58,5.28,7.58.22s-7.58-5.05-7.58-.22Z"/>
  </g>
  <g>
    <path class="cls-3" d="M9.04,58.19c-.41-.39-.71-.75-.9-1.08h-1.18c-1.31,0-1.96-.97-1.96-2.92s.65-3.01,1.96-3.01h35.31c1.57,0,2.74.42,3.5,1.25.77.83,1.15,1.87,1.15,3.09,0,.78-.22,1.63-.64,2.55-.43.92-1.04,1.77-1.82,2.55-1.57,1.45-3.25,2.83-5.04,4.13-1.79,1.31-3.68,2.55-5.66,3.71,3.03,1.11,5.85,2.02,8.46,2.71,2.62.7,5.25,1.21,7.9,1.54,1.23.17,2.07.4,2.52.71.45.3.67,1.15.67,2.55,0,1-.23,1.78-.7,2.34-.47.56-1.35.72-2.66.5-1.87-.33-3.78-.74-5.75-1.21s-3.92-1-5.89-1.59c-1.96-.58-3.89-1.22-5.77-1.92-1.89-.7-3.69-1.43-5.41-2.21-7.44,3.51-15.49,5.93-24.16,7.26-.86.11-1.55-.06-2.07-.5-.52-.45-.82-1.22-.9-2.34-.08-1.17.11-1.98.56-2.42.45-.45,1.12-.72,2.02-.84,3.03-.56,6.01-1.21,8.94-1.96,2.93-.75,5.97-1.68,9.11-2.8-1.91-1.28-3.85-2.75-5.83-4.42-1.98-1.67-3.91-3.56-5.77-5.68ZM51.36,41.75c0,2.67-.4,4.48-1.21,5.43-.8.95-2.12,1.42-3.95,1.42H7.3c-1.91,0-3.27-.47-4.09-1.42-.82-.95-1.23-2.76-1.23-5.43v-4.84c0-2.51.41-4.23,1.23-5.18.82-.95,2.19-1.42,4.09-1.42h38.9c1.83,0,3.15.47,3.95,1.42.8.95,1.21,2.67,1.21,5.18v4.84ZM47.72,20.04c0,1.56-.09,2.83-.28,3.8-.19.97-.47,1.74-.84,2.3-.37.56-.85.93-1.43,1.13-.58.2-1.26.29-2.05.29H10.89c-1.05,0-1.91-.1-2.58-.29-.67-.19-1.21-.54-1.63-1.04-.41-.5-.7-1.21-.87-2.13s-.25-2.1-.25-3.55v-9.85c0-2.84.42-4.7,1.26-5.59.84-.89,2.19-1.34,4.06-1.34h32.23c.9,0,1.63.1,2.21.29.58.2,1.05.54,1.4,1.04.35.5.61,1.21.76,2.13.15.92.22,2.07.22,3.46v9.35ZM5.96,41.58c0,.89.45,1.34,1.35,1.34h9.75v-6.93H7.3c-.41,0-.74.1-.98.29-.24.2-.36.52-.36.96v4.34ZM43.63,10.85c0-.89-.34-1.34-1.01-1.34H11c-.9,0-1.35.45-1.35,1.34v1.84h33.97v-1.84ZM43.63,18.03H9.66v1.84c0,.78.12,1.29.36,1.54.24.25.57.38.98.38h31.61c.34,0,.59-.1.76-.29.17-.19.25-.74.25-1.63v-1.84ZM15.32,57.11c1.87,1.73,3.83,3.34,5.89,4.84,2.05,1.5,4.09,2.75,6.11,3.76,1.01-.5,2.11-1.06,3.31-1.67,1.2-.61,2.38-1.28,3.56-2,1.18-.72,2.31-1.45,3.39-2.17,1.08-.72,2.02-1.45,2.8-2.17.26-.22.4-.38.42-.46.02-.08-.18-.12-.59-.12H15.32ZM21.04,42.91h11.66v-6.93h-11.66v6.93ZM45.92,42.91c.41,0,.76-.14,1.04-.42s.42-.58.42-.92v-4.34c0-.84-.49-1.25-1.46-1.25h-9.19v6.93h9.19Z"/>
    <path class="cls-3" d="M68.91,39.57c-.9,1.62-2.06,1.48-3.48-.42-1.31-1.67-2.56-3.12-3.76-4.34-1.2-1.22-2.54-2.56-4.04-4.01-.75-.72-1.22-1.43-1.43-2.13-.21-.7-.1-1.52.31-2.46.41-1,.85-1.57,1.32-1.71.47-.14,1.09.15,1.88.88,1.76,1.62,3.27,3.08,4.54,4.38,1.27,1.31,2.54,2.77,3.81,4.38.86,1.11,1.35,2.06,1.46,2.84.11.78-.09,1.64-.62,2.59ZM69.24,53.35c-.75,2.39-1.46,4.57-2.13,6.51-.67,1.95-1.35,3.83-2.02,5.64-.67,1.81-1.37,3.59-2.1,5.34-.73,1.75-1.5,3.6-2.33,5.55-.52,1.11-1.11,1.81-1.77,2.09-.65.28-1.22.11-1.71-.5-.56-.61-.85-1.41-.87-2.38-.02-.97.35-2.18,1.09-3.63,1.53-3.06,2.94-6.36,4.23-9.89s2.49-7.22,3.62-11.06c.41-1.34.87-2.32,1.37-2.96.5-.64,1.11-.76,1.82-.38.71.45,1.15,1.1,1.32,1.96.17.86,0,2.1-.53,3.72ZM70.25,17.28c-.49.95-.97,1.38-1.46,1.29-.49-.08-1.16-.63-2.02-1.63-1.31-1.56-2.63-3.03-3.95-4.43-1.33-1.39-2.55-2.59-3.67-3.59-.75-.67-1.17-1.41-1.26-2.21-.09-.81.06-1.63.48-2.46.75-1.56,1.85-1.67,3.31-.33,1.57,1.45,2.93,2.77,4.09,3.97,1.16,1.2,2.39,2.58,3.7,4.13.86,1,1.34,1.87,1.43,2.59.09.72-.12,1.61-.64,2.67ZM77.43,77.65c-1.12.78-1.98,1.07-2.58.88-.6-.2-1.05-.82-1.35-1.88-.3-1.22-.29-2.21.03-2.96.32-.75.91-1.38,1.77-1.88,2.43-1.45,4.73-3.1,6.89-4.97,2.17-1.86,4.2-3.97,6.11-6.3-1.98-3.34-3.81-7.06-5.49-11.15-1.68-4.09-3.27-8.59-4.76-13.48h-.06c-.08,4.62-.27,8.88-.59,12.77-.32,3.9-.79,7.51-1.43,10.85-.64,3.34-1.43,6.44-2.38,9.31-.95,2.87-2.08,5.64-3.39,8.31-.52,1.06-1.07,1.68-1.65,1.88-.58.19-1.13-.01-1.65-.63-1.16-1.17-1.18-2.87-.06-5.09,1.31-2.56,2.41-5.21,3.31-7.93.9-2.73,1.62-5.77,2.16-9.14.54-3.37.92-7.21,1.15-11.52.22-4.31.34-9.34.34-15.07v-13.11c0-2.45.43-4.4,1.29-5.84.86-1.45,2.13-2.17,3.81-2.17h9.19V3.09c0-1.22.2-2.05.59-2.46.39-.42.91-.63,1.54-.63s1.15.24,1.54.71c.39.47.59,1.27.59,2.38v5.43h9.47c1.01,0,1.89.25,2.63.75.75.5,1.35,1.2,1.82,2.09.47.89.79,1.91.95,3.05.17,1.14.14,2.32-.08,3.55h.06c-.19,1.17-.48,2.5-.87,4.01-.39,1.5-.91,3.03-1.54,4.59-1.01,2.28-2.15,2.87-3.42,1.75-1.2-1.17-1.31-2.87-.34-5.09.45-1.06.79-2.05,1.04-2.96.24-.92.46-1.88.64-2.88.3-1.72-.08-2.59-1.12-2.59h-9.25v14.94h7.17c2.13,0,3.45.77,3.95,2.3.5,1.53.51,3.47.03,5.8-.97,4.57-2.23,8.75-3.78,12.57-1.55,3.81-3.35,7.31-5.41,10.48,1.91,2.56,3.9,4.8,6,6.72,2.09,1.92,4.32,3.44,6.67,4.55,1.16.56,1.9,1.11,2.21,1.67.32.56.35,1.59.08,3.09-.3,1.34-.74,2.07-1.32,2.21-.58.14-1.35-.07-2.33-.63-5.34-2.95-10.13-7.4-14.35-13.36-2.02,2.62-4.19,4.95-6.5,7.01-2.32,2.06-4.78,3.92-7.4,5.59l.06-.08ZM79.56,14.78c-.41,0-.77.22-1.07.67-.3.45-.45,1.06-.45,1.84v12.44h10.03v-14.94h-8.52ZM82.58,35.9c2.39,7.79,5.32,14.61,8.8,20.46,1.72-2.67,3.22-5.56,4.51-8.68,1.29-3.12,2.31-6.46,3.05-10.02.15-.61.17-1.06.06-1.34-.11-.28-.47-.42-1.06-.42h-15.36Z"/>
  </g>
</svg>